# xmcd CD database file
#
# Track frame offsets:
#	150
#	18867
#	42200
#
# Disc length: 809 seconds
#
# Revision: 0
# Processed by: cddbd v1.5.1PL2 Copyright (c) Steve Scherf et al.
# Submitted via: CDex 1.51
#
DISCID=17032703
DTITLE=V6 - Darling
DYEAR=2003
DGENRE=Japanese Pop
TTITLE0=Darling
TTITLE1=20th Century - 光り射す場所へ
TTITLE2=Darling(カラオケ)
EXTD=YEAR: 2003
EXTT0=
EXTT1=
EXTT2=
PLAYORDER=
